<svg width="150" height="117" viewBox="0 0 150 117" fill="none" xmlns="http://www.w3.org/2000/svg">
<mask id="mask0" mask-type="alpha" maskUnits="userSpaceOnUse" x="-1" y="0" width="151" height="118">
<rect x="150" y="117" width="150" height="117" transform="rotate(-180 150 117)" fill="#C4C4C4"/>
</mask>
<g mask="url(#mask0)">
<path d="M92.9059 91.6721L77.9996 81.5471C86.7184 69.6409 91.2184 56.7971 91.4996 43.0159V23.8909H117.375V40.2034C117.375 49.7659 115.125 59.2346 110.625 68.6096C106.031 77.9846 100.125 85.6721 92.9059 91.6721ZM48.609 91.6721L33.7028 81.5471C42.4215 69.6409 46.9215 56.7971 47.2028 43.0159L47.2028 23.8909H73.0778V40.2034C73.0778 49.7659 70.8278 59.2346 66.3278 68.6096C61.734 77.9846 55.8278 85.6721 48.609 91.6721ZM113.156 -505.781L127.922 -495.656C119.109 -483.375 114.515 -470.719 114.14 -457.687L114.14 -434.203H88.6871V-454.594C88.6871 -464.062 91.0309 -473.531 95.7184 -483C100.312 -492.469 106.125 -500.062 113.156 -505.781Z" fill="black"/>
</g>
</svg>
