<svg width="804" height="434" viewBox="0 0 804 434" fill="none" xmlns="http://www.w3.org/2000/svg">
<g clip-path="url(#clip0)">
<path opacity="0.1" d="M804 278.566C804.01 290.356 802.39 302.09 799.186 313.436C796.089 324.374 791.534 334.846 785.643 344.567C785.643 379.789 761.874 410.231 727.374 424.713C712.958 430.704 697.493 433.763 681.882 433.712H152.626C124.339 433.712 98.1245 426.077 76.626 413.071C70.4732 409.366 64.6366 405.159 59.1755 400.494C35.2804 379.951 20.4654 351.562 20.4654 320.207C7.05477 299.549 -0.0561908 275.434 -5.29916e-06 250.803C-5.29916e-06 199.228 30.4944 154.88 74.1802 135.3C79.9813 132.702 85.9754 130.558 92.1086 128.889C94.2779 128.298 96.4706 127.768 98.6868 127.3C104.595 126.041 110.587 125.219 116.615 124.839C118.794 124.703 120.984 124.626 123.186 124.607H124.395C126.827 124.607 129.237 124.692 131.634 124.832L132.421 123.496C133.386 121.884 134.375 120.288 135.387 118.709C137.214 115.831 139.13 112.995 141.136 110.202C143.235 107.254 145.425 104.353 147.707 101.498L148.29 100.795C149.583 99.1829 150.905 97.5894 152.254 96.0146C156.471 91.098 160.922 86.329 165.607 81.7077C216.286 32.0169 295.681 0.028656 384.936 0.028656C454.386 0.028656 517.87 19.3974 566.497 51.3997C584.918 40.9712 605.728 35.4993 626.895 35.5181C695.586 35.5181 751.29 92.0213 751.29 161.721C751.28 166.131 751.045 170.537 750.587 174.924C767.146 186.649 780.642 202.186 789.938 220.224C799.234 238.262 804.057 258.272 804 278.566V278.566Z" fill="#1EB980"/>
<path opacity="0.2" d="M165.621 81.679V95.9859H152.268C156.452 91.074 160.903 86.305 165.621 81.679Z" fill="#1EB980"/>
<path opacity="0.2" d="M190.128 78.0514H172.199V95.9859H190.128V78.0514Z" fill="#1EB980"/>
<path opacity="0.2" d="M214.627 78.0514H196.699V95.9859H214.627V78.0514Z" fill="#1EB980"/>
<path opacity="0.2" d="M239.134 78.0514H221.205V95.9859H239.134V78.0514Z" fill="#1EB980"/>
<path opacity="0.2" d="M263.633 78.0514H245.705V95.9859H263.633V78.0514Z" fill="#1EB980"/>
<path opacity="0.2" d="M288.14 78.0514H270.211V95.9859H288.14V78.0514Z" fill="#1EB980"/>
<path d="M312.646 78.0514H294.718V95.9859H312.646V78.0514Z" fill="#1EB980"/>
<path opacity="0.2" d="M337.146 78.0514H319.217V95.9859H337.146V78.0514Z" fill="#1EB980"/>
<path opacity="0.2" d="M361.652 78.0514H343.724V95.9859H361.652V78.0514Z" fill="#1EB980"/>
<path opacity="0.2" d="M386.152 78.0514H368.224V95.9859H386.152V78.0514Z" fill="#1EB980"/>
<path d="M410.658 78.0514H392.73V95.9859H410.658V78.0514Z" fill="#1EB980"/>
<path opacity="0.2" d="M435.165 78.0514H417.237V95.9859H435.165V78.0514Z" fill="#1EB980"/>
<path opacity="0.2" d="M459.665 78.0514H441.736V95.9859H459.665V78.0514Z" fill="#1EB980"/>
<path opacity="0.2" d="M484.171 78.0514H466.243V95.9859H484.171V78.0514Z" fill="#1EB980"/>
<path opacity="0.2" d="M508.678 78.0514H490.749V95.9859H508.678V78.0514Z" fill="#1EB980"/>
<path opacity="0.2" d="M533.177 78.0514H515.249V95.9859H533.177V78.0514Z" fill="#1EB980"/>
<path opacity="0.2" d="M557.684 78.0514H539.755V95.9859H557.684V78.0514Z" fill="#1EB980"/>
<path d="M582.183 78.0514H564.255V95.9859H582.183V78.0514Z" fill="#1EB980"/>
<path d="M606.69 78.0514H588.761V95.9859H606.69V78.0514Z" fill="#1EB980"/>
<path opacity="0.2" d="M631.196 78.0514H613.268V95.9859H631.196V78.0514Z" fill="#1EB980"/>
<path opacity="0.2" d="M655.696 78.0514H637.767V95.9859H655.696V78.0514Z" fill="#1EB980"/>
<path d="M680.202 78.0514H662.274V95.9859H680.202V78.0514Z" fill="#1EB980"/>
<path d="M704.702 78.0514H686.773V95.9859H704.702V78.0514Z" fill="#1EB980"/>
<path d="M141.122 110.194V118.701H135.373C137.2 115.805 139.116 112.969 141.122 110.194Z" fill="#1EB980"/>
<path opacity="0.2" d="M165.621 100.767H147.693V118.701H165.621V100.767Z" fill="#1EB980"/>
<path d="M190.128 100.767H172.199V118.701H190.128V100.767Z" fill="#1EB980"/>
<path opacity="0.2" d="M214.627 100.767H196.699V118.701H214.627V100.767Z" fill="#1EB980"/>
<path opacity="0.7" d="M239.134 100.767H221.205V118.701H239.134V100.767Z" fill="#1EB980"/>
<path opacity="0.2" d="M263.633 100.767H245.705V118.701H263.633V100.767Z" fill="#1EB980"/>
<path opacity="0.4" d="M288.14 100.767H270.211V118.701H288.14V100.767Z" fill="#1EB980"/>
<path d="M312.646 100.767H294.718V118.701H312.646V100.767Z" fill="#1EB980"/>
<path opacity="0.4" d="M337.146 100.767H319.217V118.701H337.146V100.767Z" fill="#1EB980"/>
<path opacity="0.2" d="M361.652 100.767H343.724V118.701H361.652V100.767Z" fill="#1EB980"/>
<path opacity="0.4" d="M386.152 100.767H368.224V118.701H386.152V100.767Z" fill="#1EB980"/>
<path d="M410.658 100.767H392.73V118.701H410.658V100.767Z" fill="#1EB980"/>
<path opacity="0.4" d="M435.165 100.767H417.237V118.701H435.165V100.767Z" fill="#1EB980"/>
<path opacity="0.4" d="M459.665 100.767H441.736V118.701H459.665V100.767Z" fill="#1EB980"/>
<path opacity="0.2" d="M484.171 100.767H466.243V118.701H484.171V100.767Z" fill="#1EB980"/>
<path opacity="0.4" d="M508.678 100.767H490.749V118.701H508.678V100.767Z" fill="#1EB980"/>
<path opacity="0.4" d="M533.177 100.767H515.249V118.701H533.177V100.767Z" fill="#1EB980"/>
<path opacity="0.2" d="M557.684 100.767H539.755V118.701H557.684V100.767Z" fill="#1EB980"/>
<path opacity="0.2" d="M582.183 100.767H564.255V118.701H582.183V100.767Z" fill="#1EB980"/>
<path opacity="0.4" d="M606.69 100.767H588.761V118.701H606.69V100.767Z" fill="#1EB980"/>
<path opacity="0.2" d="M631.196 100.767H613.268V118.701H631.196V100.767Z" fill="#1EB980"/>
<path d="M655.696 100.767H637.767V118.701H655.696V100.767Z" fill="#1EB980"/>
<path d="M680.202 100.767H662.274V118.701H680.202V100.767Z" fill="#1EB980"/>
<path d="M704.702 100.767H686.773V118.701H704.702V100.767Z" fill="#1EB980"/>
<path opacity="0.2" d="M92.1086 128.888V141.423H74.1802V135.3C79.9813 132.701 85.9754 130.557 92.1086 128.888V128.888Z" fill="#1EB980"/>
<path opacity="0.2" d="M116.615 124.839V141.423H98.6868V127.299L116.615 124.839Z" fill="#1EB980"/>
<path d="M141.115 123.489H123.186V141.423H141.115V123.489Z" fill="#1EB980"/>
<path opacity="0.7" d="M165.621 123.489H147.693V141.423H165.621V123.489Z" fill="#1EB980"/>
<path d="M190.128 123.489H172.199V141.423H190.128V123.489Z" fill="#1EB980"/>
<path opacity="0.7" d="M214.627 123.489H196.699V141.423H214.627V123.489Z" fill="#1EB980"/>
<path opacity="0.7" d="M239.134 123.489H221.205V141.423H239.134V123.489Z" fill="#1EB980"/>
<path opacity="0.2" d="M263.633 123.489H245.705V141.423H263.633V123.489Z" fill="#1EB980"/>
<path opacity="0.4" d="M288.14 123.489H270.211V141.423H288.14V123.489Z" fill="#1EB980"/>
<path opacity="0.4" d="M312.646 123.489H294.718V141.423H312.646V123.489Z" fill="#1EB980"/>
<path d="M337.146 123.489H319.217V141.423H337.146V123.489Z" fill="#1EB980"/>
<path opacity="0.2" d="M361.652 123.489H343.724V141.423H361.652V123.489Z" fill="#1EB980"/>
<path opacity="0.4" d="M386.152 123.489H368.224V141.423H386.152V123.489Z" fill="#1EB980"/>
<path d="M410.658 123.489H392.73V141.423H410.658V123.489Z" fill="#1EB980"/>
<path opacity="0.2" d="M435.165 123.489H417.237V141.423H435.165V123.489Z" fill="#1EB980"/>
<path opacity="0.4" d="M459.665 123.489H441.736V141.423H459.665V123.489Z" fill="#1EB980"/>
<path opacity="0.2" d="M484.171 123.489H466.243V141.423H484.171V123.489Z" fill="#1EB980"/>
<path d="M508.678 123.489H490.749V141.423H508.678V123.489Z" fill="#1EB980"/>
<path opacity="0.2" d="M533.177 123.489H515.249V141.423H533.177V123.489Z" fill="#1EB980"/>
<path opacity="0.7" d="M557.684 123.489H539.755V141.423H557.684V123.489Z" fill="#1EB980"/>
<path opacity="0.7" d="M582.183 123.489H564.255V141.423H582.183V123.489Z" fill="#1EB980"/>
<path opacity="0.4" d="M606.69 123.489H588.761V141.423H606.69V123.489Z" fill="#1EB980"/>
<path opacity="0.2" d="M631.196 123.489H613.268V141.423H631.196V123.489Z" fill="#1EB980"/>
<path d="M655.696 123.489H637.767V141.423H655.696V123.489Z" fill="#1EB980"/>
<path d="M680.202 123.489H662.274V141.423H680.202V123.489Z" fill="#1EB980"/>
<path d="M704.702 123.489H686.773V141.423H704.702V123.489Z" fill="#1EB980"/>
<path opacity="0.2" d="M92.1086 146.204H74.1802V164.139H92.1086V146.204Z" fill="#1EB980"/>
<path opacity="0.2" d="M116.615 146.204H98.6868V164.139H116.615V146.204Z" fill="#1EB980"/>
<path opacity="0.2" d="M141.115 146.204H123.186V164.139H141.115V146.204Z" fill="#1EB980"/>
<path opacity="0.2" d="M165.621 146.204H147.693V164.139H165.621V146.204Z" fill="#1EB980"/>
<path d="M190.128 146.204H172.199V164.139H190.128V146.204Z" fill="#1EB980"/>
<path opacity="0.7" d="M214.627 146.204H196.699V164.139H214.627V146.204Z" fill="#1EB980"/>
<path opacity="0.7" d="M239.134 146.204H221.205V164.139H239.134V146.204Z" fill="#1EB980"/>
<path opacity="0.2" d="M263.633 146.204H245.705V164.139H263.633V146.204Z" fill="#1EB980"/>
<path opacity="0.2" d="M288.14 146.204H270.211V164.139H288.14V146.204Z" fill="#1EB980"/>
<path opacity="0.4" d="M312.646 146.204H294.718V164.139H312.646V146.204Z" fill="#1EB980"/>
<path opacity="0.4" d="M337.146 146.204H319.217V164.139H337.146V146.204Z" fill="#1EB980"/>
<path d="M361.652 146.204H343.724V164.139H361.652V146.204Z" fill="#1EB980"/>
<path opacity="0.2" d="M386.152 146.204H368.224V164.139H386.152V146.204Z" fill="#1EB980"/>
<path opacity="0.4" d="M410.658 146.204H392.73V164.139H410.658V146.204Z" fill="#1EB980"/>
<path opacity="0.4" d="M435.165 146.204H417.237V164.139H435.165V146.204Z" fill="#1EB980"/>
<path opacity="0.4" d="M459.665 146.204H441.736V164.139H459.665V146.204Z" fill="#1EB980"/>
<path opacity="0.4" d="M484.171 146.204H466.243V164.139H484.171V146.204Z" fill="#1EB980"/>
<path opacity="0.2" d="M508.678 146.204H490.749V164.139H508.678V146.204Z" fill="#1EB980"/>
<path opacity="0.2" d="M533.177 146.204H515.249V164.139H533.177V146.204Z" fill="#1EB980"/>
<path opacity="0.2" d="M557.684 146.204H539.755V164.139H557.684V146.204Z" fill="#1EB980"/>
<path opacity="0.2" d="M582.183 146.204H564.255V164.139H582.183V146.204Z" fill="#1EB980"/>
<path opacity="0.7" d="M606.69 146.204H588.761V164.139H606.69V146.204Z" fill="#1EB980"/>
<path opacity="0.7" d="M631.196 146.204H613.268V164.139H631.196V146.204Z" fill="#1EB980"/>
<path opacity="0.4" d="M655.696 146.204H637.767V164.139H655.696V146.204Z" fill="#1EB980"/>
<path opacity="0.2" d="M680.202 146.204H662.274V164.139H680.202V146.204Z" fill="#1EB980"/>
<path d="M704.702 146.204H686.773V164.139H704.702V146.204Z" fill="#1EB980"/>
<path opacity="0.2" d="M92.1086 168.926H74.1802V186.861H92.1086V168.926Z" fill="#1EB980"/>
<path opacity="0.2" d="M116.615 168.926H98.6868V186.861H116.615V168.926Z" fill="#1EB980"/>
<path opacity="0.4" d="M141.115 168.926H123.186V186.861H141.115V168.926Z" fill="#1EB980"/>
<path opacity="0.2" d="M165.621 168.926H147.693V186.861H165.621V168.926Z" fill="#1EB980"/>
<path opacity="0.2" d="M190.128 168.926H172.199V186.861H190.128V168.926Z" fill="#1EB980"/>
<path opacity="0.7" d="M214.627 168.926H196.699V186.861H214.627V168.926Z" fill="#1EB980"/>
<path opacity="0.7" d="M239.134 168.926H221.205V186.861H239.134V168.926Z" fill="#1EB980"/>
<path opacity="0.2" d="M263.633 168.926H245.705V186.861H263.633V168.926Z" fill="#1EB980"/>
<path opacity="0.2" d="M288.14 168.926H270.211V186.861H288.14V168.926Z" fill="#1EB980"/>
<path opacity="0.4" d="M312.646 168.926H294.718V186.861H312.646V168.926Z" fill="#1EB980"/>
<path d="M337.146 168.926H319.217V186.861H337.146V168.926Z" fill="#1EB980"/>
<path opacity="0.2" d="M361.652 168.926H343.724V186.861H361.652V168.926Z" fill="#1EB980"/>
<path d="M386.152 168.926H368.224V186.861H386.152V168.926Z" fill="#1EB980"/>
<path d="M410.658 168.926H392.73V186.861H410.658V168.926Z" fill="#1EB980"/>
<path d="M435.165 168.926H417.237V186.861H435.165V168.926Z" fill="#1EB980"/>
<path opacity="0.2" d="M459.665 168.926H441.736V186.861H459.665V168.926Z" fill="#1EB980"/>
<path d="M484.171 168.926H466.243V186.861H484.171V168.926Z" fill="#1EB980"/>
<path opacity="0.2" d="M508.678 168.926H490.749V186.861H508.678V168.926Z" fill="#1EB980"/>
<path opacity="0.2" d="M533.177 168.926H515.249V186.861H533.177V168.926Z" fill="#1EB980"/>
<path opacity="0.2" d="M557.684 168.926H539.755V186.861H557.684V168.926Z" fill="#1EB980"/>
<path opacity="0.2" d="M582.183 168.926H564.255V186.861H582.183V168.926Z" fill="#1EB980"/>
<path opacity="0.2" d="M606.69 168.926H588.761V186.861H606.69V168.926Z" fill="#1EB980"/>
<path opacity="0.7" d="M631.196 168.926H613.268V186.861H631.196V168.926Z" fill="#1EB980"/>
<path opacity="0.2" d="M655.696 168.926H637.767V186.861H655.696V168.926Z" fill="#1EB980"/>
<path opacity="0.2" d="M680.202 168.926H662.274V186.861H680.202V168.926Z" fill="#1EB980"/>
<path d="M704.702 168.926H686.773V186.861H704.702V168.926Z" fill="#1EB980"/>
<path opacity="0.2" d="M92.1086 191.641H74.1802V209.576H92.1086V191.641Z" fill="#1EB980"/>
<path opacity="0.2" d="M116.615 191.641H98.6868V209.576H116.615V191.641Z" fill="#1EB980"/>
<path opacity="0.2" d="M141.115 191.641H123.186V209.576H141.115V191.641Z" fill="#1EB980"/>
<path opacity="0.4" d="M165.621 191.641H147.693V209.576H165.621V191.641Z" fill="#1EB980"/>
<path opacity="0.2" d="M190.128 191.641H172.199V209.576H190.128V191.641Z" fill="#1EB980"/>
<path opacity="0.2" d="M214.627 191.641H196.699V209.576H214.627V191.641Z" fill="#1EB980"/>
<path opacity="0.7" d="M239.134 191.641H221.205V209.576H239.134V191.641Z" fill="#1EB980"/>
<path opacity="0.2" d="M263.633 191.641H245.705V209.576H263.633V191.641Z" fill="#1EB980"/>
<path opacity="0.2" d="M288.14 191.641H270.211V209.576H288.14V191.641Z" fill="#1EB980"/>
<path opacity="0.2" d="M312.646 191.641H294.718V209.576H312.646V191.641Z" fill="#1EB980"/>
<path d="M337.146 191.641H319.217V209.576H337.146V191.641Z" fill="#1EB980"/>
<path opacity="0.2" d="M361.652 191.641H343.724V209.576H361.652V191.641Z" fill="#1EB980"/>
<path d="M386.152 191.641H368.224V209.576H386.152V191.641Z" fill="#1EB980"/>
<path d="M410.658 191.641H392.73V209.576H410.658V191.641Z" fill="#1EB980"/>
<path opacity="0.2" d="M435.165 191.641H417.237V209.576H435.165V191.641Z" fill="#1EB980"/>
<path opacity="0.2" d="M459.665 191.641H441.736V209.576H459.665V191.641Z" fill="#1EB980"/>
<path opacity="0.2" d="M484.171 191.641H466.243V209.576H484.171V191.641Z" fill="#1EB980"/>
<path opacity="0.2" d="M508.678 191.641H490.749V209.576H508.678V191.641Z" fill="#1EB980"/>
<path opacity="0.2" d="M533.177 191.641H515.249V209.576H533.177V191.641Z" fill="#1EB980"/>
<path opacity="0.2" d="M557.684 191.641H539.755V209.576H557.684V191.641Z" fill="#1EB980"/>
<path opacity="0.2" d="M582.183 191.641H564.255V209.576H582.183V191.641Z" fill="#1EB980"/>
<path opacity="0.2" d="M606.69 191.641H588.761V209.576H606.69V191.641Z" fill="#1EB980"/>
<path opacity="0.2" d="M631.196 191.641H613.268V209.576H631.196V191.641Z" fill="#1EB980"/>
<path opacity="0.2" d="M655.696 191.641H637.767V209.576H655.696V191.641Z" fill="#1EB980"/>
<path opacity="0.4" d="M680.202 191.641H662.274V209.576H680.202V191.641Z" fill="#1EB980"/>
<path d="M704.702 191.641H686.773V209.576H704.702V191.641Z" fill="#1EB980"/>
<path opacity="0.7" d="M92.1086 214.364H74.1802V232.298H92.1086V214.364Z" fill="#1EB980"/>
<path opacity="0.7" d="M116.615 214.364H98.6868V232.298H116.615V214.364Z" fill="#1EB980"/>
<path opacity="0.7" d="M141.115 214.364H123.186V232.298H141.115V214.364Z" fill="#1EB980"/>
<path opacity="0.7" d="M165.621 214.364H147.693V232.298H165.621V214.364Z" fill="#1EB980"/>
<path opacity="0.7" d="M190.128 214.364H172.199V232.298H190.128V214.364Z" fill="#1EB980"/>
<path opacity="0.2" d="M214.627 214.364H196.699V232.298H214.627V214.364Z" fill="#1EB980"/>
<path opacity="0.2" d="M239.134 214.364H221.205V232.298H239.134V214.364Z" fill="#1EB980"/>
<path opacity="0.2" d="M263.633 214.364H245.705V232.298H263.633V214.364Z" fill="#1EB980"/>
<path opacity="0.2" d="M288.14 214.364H270.211V232.298H288.14V214.364Z" fill="#1EB980"/>
<path opacity="0.2" d="M312.646 214.364H294.718V232.298H312.646V214.364Z" fill="#1EB980"/>
<path opacity="0.2" d="M337.146 214.364H319.217V232.298H337.146V214.364Z" fill="#1EB980"/>
<path d="M361.652 214.364H343.724V232.298H361.652V214.364Z" fill="#1EB980"/>
<path opacity="0.2" d="M386.152 214.364H368.224V232.298H386.152V214.364Z" fill="#1EB980"/>
<path opacity="0.2" d="M410.658 214.364H392.73V232.298H410.658V214.364Z" fill="#1EB980"/>
<path opacity="0.2" d="M435.165 214.364H417.237V232.298H435.165V214.364Z" fill="#1EB980"/>
<path d="M459.665 214.364H441.736V232.298H459.665V214.364Z" fill="#1EB980"/>
<path opacity="0.2" d="M484.171 214.364H466.243V232.298H484.171V214.364Z" fill="#1EB980"/>
<path opacity="0.2" d="M508.678 214.364H490.749V232.298H508.678V214.364Z" fill="#1EB980"/>
<path opacity="0.2" d="M533.177 214.364H515.249V232.298H533.177V214.364Z" fill="#1EB980"/>
<path opacity="0.2" d="M557.684 214.364H539.755V232.298H557.684V214.364Z" fill="#1EB980"/>
<path opacity="0.2" d="M582.183 214.364H564.255V232.298H582.183V214.364Z" fill="#1EB980"/>
<path opacity="0.2" d="M606.69 214.364H588.761V232.298H606.69V214.364Z" fill="#1EB980"/>
<path opacity="0.2" d="M631.196 214.364H613.268V232.298H631.196V214.364Z" fill="#1EB980"/>
<path opacity="0.2" d="M655.696 214.364H637.767V232.298H655.696V214.364Z" fill="#1EB980"/>
<path opacity="0.2" d="M680.202 214.364H662.274V232.298H680.202V214.364Z" fill="#1EB980"/>
<path d="M704.702 214.364H686.773V232.298H704.702V214.364Z" fill="#1EB980"/>
<path d="M516.219 280.344C529.753 280.344 540.725 269.368 540.725 255.829C540.725 242.29 529.753 231.314 516.219 231.314C502.684 231.314 491.712 242.29 491.712 255.829C491.712 269.368 502.684 280.344 516.219 280.344Z" fill="#767D9F"/>
<path d="M514.947 224.642C517.392 235.319 519.468 246.075 521.173 256.912C521.686 260.131 522.143 263.527 520.977 266.571C520 269.109 518.011 271.092 516.451 273.313C514.89 275.535 513.71 278.382 514.658 280.927C515.607 283.472 518.376 284.864 521.019 285.581C528.581 287.62 536.642 286.137 544.169 283.929C547.577 283.052 550.844 281.698 553.874 279.908C557.065 277.883 559.68 275.071 562.083 272.174C573.054 258.866 580.236 242.893 586.997 227.018C582.653 227.414 578.277 226.77 574.231 225.139C570.185 223.508 566.584 220.938 563.728 217.64C560.959 214.385 558.928 209.85 560.488 205.871C555.913 208.381 550.48 208.549 545.553 210.265C542.498 211.432 539.557 212.88 536.768 214.589C533.404 216.534 530.059 218.516 526.732 220.536C522.93 222.828 519.367 224.867 514.947 224.642Z" fill="#AE6E79"/>
<path d="M566.202 243.048C561.907 251.407 556.32 259.442 548.343 264.42C540.367 269.398 529.628 270.747 521.637 265.826C517.702 263.422 514.722 259.766 511.285 256.687C507.848 253.607 503.554 250.971 498.937 251.372C493.849 251.814 489.864 255.787 486.455 259.59C481.283 265.369 476.286 271.394 472.624 278.235C465.596 291.382 463.931 306.75 464.24 321.654C464.549 336.559 466.707 351.386 466.756 366.29C466.826 384.626 463.72 402.813 460.578 420.874C489.463 417.317 518.383 425.093 547.331 428.038C565.857 429.943 584.523 429.901 603.148 429.852C606.423 429.852 609.909 429.768 612.635 427.954C614.302 426.738 615.65 425.136 616.564 423.286C619.136 418.54 620.169 413.127 620.886 407.777C622.706 394.264 622.763 380.583 622.812 366.944C622.938 333.901 623.058 300.739 618.862 267.956C617.829 259.892 616.508 251.786 613.415 244.243C610.323 236.699 605.277 229.76 598.221 225.718C593.688 223.116 583.181 218.589 577.84 221.211C571.845 224.136 569.076 237.451 566.202 243.048Z" fill="#767D9F"/>
<path d="M568.338 336.355C567.249 315.967 562.814 294.208 572.253 276.112C574.572 271.668 566.251 266.121 568.823 261.819C571.962 256.573 574.342 250.909 575.893 244.995C576.427 242.963 576.856 240.812 576.35 238.773C575.415 235.054 571.74 232.839 568.619 230.576C565.175 228.073 563.404 220.445 562.294 216.318C561.184 212.191 571.128 217.162 575.127 215.692C580.679 213.661 587.735 214.94 593.273 217C596.366 218.139 599.725 218.237 603.021 218.322C609.424 218.49 615.847 218.652 622.2 217.865C625.054 217.506 627.914 216.965 630.782 217.127C638.098 217.541 644.458 222.547 648.787 228.467C653.116 234.386 655.871 241.283 659.421 247.695C662.379 253.038 665.907 258.086 668.43 263.647C670.665 268.568 672.078 273.855 673.477 279.113L677.082 292.605C677.713 294.535 678.012 296.558 677.967 298.588C677.785 300.746 676.829 302.757 675.859 304.676C672.192 311.79 667.794 318.502 662.738 324.706C655.155 334.007 645.948 342.394 641.443 353.53C639.686 357.868 638.709 362.48 637.817 367.078C634.218 385.467 631.66 404.045 630.156 422.723C621.944 418.922 613.336 416.043 604.49 414.139C600.08 413.195 595.623 412.491 591.137 412.03C587.208 411.622 582.141 412.396 578.402 411.327C572.147 409.548 571.458 398.968 570.51 393.428C568.992 384.604 568.689 375.627 568.633 366.712C568.563 356.574 568.879 346.458 568.338 336.355Z" fill="#4C4981"/>
<path d="M430.976 298.229C433.935 315.102 437.196 332.024 443.627 347.878C443.465 348.032 443.303 348.173 443.142 348.314C442.572 348.799 441.982 349.256 441.364 349.72C439.923 350.732 438.342 351.59 437.147 352.912C436.694 353.417 436.337 354.001 436.093 354.634C435.872 355.128 435.758 355.664 435.758 356.205C435.758 356.747 435.872 357.282 436.093 357.777C432.74 359.26 428.847 358.803 425.087 358.662C421.847 358.543 418.705 358.662 416.105 360.441C412.493 362.93 411.403 367.71 410.82 372.055C410.605 373.639 410.419 375.226 410.265 376.815C410.115 378.291 409.993 379.772 409.899 381.258C409.581 386.173 409.536 391.102 409.766 396.022C409.803 396.922 409.853 397.822 409.913 398.722C398.43 398.447 387.965 392.457 378.063 386.636C375.8 385.308 373.466 383.908 371.998 381.715C370.644 379.561 370.071 377.007 370.374 374.481C370.374 374.122 370.437 373.778 370.487 373.412C370.801 371.326 371.341 369.28 372.096 367.31C375.194 358.918 379.761 351.146 385.583 344.356C388.099 341.417 390.931 338.541 392.105 334.85C392.618 333.24 392.807 331.532 393.327 329.929C395.661 322.983 404.08 319.7 406.962 312.958C407.665 311.348 407.988 309.583 408.859 308.037C409.644 306.751 410.656 305.619 411.846 304.697C412.359 304.268 412.893 303.853 413.42 303.439C418.359 299.567 423.117 295.478 427.694 291.171C428.547 290.369 429.39 289.558 430.224 288.738C430.113 291.92 430.365 295.104 430.976 298.229V298.229Z" fill="#4C4981"/>
<path d="M501.797 248.327C500.785 249.396 499.689 250.401 498.614 251.4L498.325 251.66L497.187 252.714C495.12 254.498 493.332 256.581 491.881 258.894L491.761 259.091C488.177 265.51 489.505 273.412 490.503 280.702C491.741 289.788 492.298 298.953 492.169 308.121C491.986 320.776 490.496 333.346 490.468 345.987C490.468 348.855 490.531 351.716 490.658 354.585C490.862 359.246 491.213 363.9 491.635 368.554C492.092 373.658 492.64 378.755 493.153 383.852C493.56 387.796 493.947 391.733 494.27 395.67C494.432 397.709 494.586 399.741 494.713 401.78C494.861 404.17 494.98 406.567 495.05 408.958C495.1 410.476 495.128 411.988 495.128 413.506C495.128 414.371 495.128 415.229 495.128 416.087C495.128 417.732 495.083 419.372 494.994 421.008C494.9 423.112 494.758 425.221 494.565 427.335C494.348 429.634 493.961 432.144 492.345 433.761C492.246 433.859 492.141 433.951 492.035 434.042L489.758 433.761C474.061 431.881 458.214 431.598 442.46 432.917C442.804 430.541 443.121 428.172 443.43 425.788C443.57 424.664 443.711 423.532 443.845 422.4C443.999 421.106 444.147 419.813 444.287 418.519C444.449 417.113 444.597 415.707 444.737 414.301C445.103 410.678 445.423 407.052 445.7 403.425C446.108 398.133 446.417 392.832 446.628 387.522C446.731 384.986 446.81 382.448 446.867 379.908C446.946 376.759 446.984 373.607 446.979 370.452C446.979 367.387 446.953 364.317 446.902 361.242C446.902 360.23 446.86 359.218 446.775 358.212C446.715 357.307 446.59 356.407 446.403 355.52C445.881 353.473 445.175 351.478 444.294 349.558C444.14 349.192 443.992 348.855 443.845 348.468C443.76 348.278 443.683 348.082 443.606 347.892C447.654 344.285 450.535 339.455 453.304 334.703C457.795 327.047 462.391 319.053 463.143 310.209C463.895 301.365 459.503 291.431 451.055 288.731C448.757 288.028 446.325 287.831 443.957 287.416C441.722 287.023 437.063 286.13 434.476 284.527C433.071 285.97 431.665 287.388 430.259 288.78C430.345 286.656 430.864 284.572 431.785 282.657L432.783 282.706C432.701 282.481 432.663 282.242 432.67 282.003C432.67 281.251 433.19 280.4 434.301 279.458C437.611 276.646 442.818 276.02 444.906 272.217C445.777 270.635 445.925 268.751 446.628 267.092C448.645 262.36 454.436 260.617 457.922 256.834C461.407 253.052 462.279 247.695 465.097 243.476C467.202 240.396 470.122 237.962 473.531 236.446C473.812 236.312 474.1 236.179 474.388 236.059C480.221 233.564 487.151 232.994 493.195 233.008C495.542 233.008 501.629 233.079 504.608 234.267C505.092 234.439 505.534 234.71 505.909 235.061C509.085 238.52 504.145 245.825 501.797 248.327Z" fill="#4C4981"/>
<path d="M432.023 282.165C437.453 280.53 443.152 279.99 448.791 280.578C454.431 281.166 459.897 282.869 464.872 285.588C469.932 288.401 474.473 292.324 477.256 297.385C481.437 304.978 481.254 314.132 480.959 322.8C480.812 327.138 480.622 331.63 478.71 335.525C476.497 340.032 472.322 343.125 468.063 345.656C465.395 347.359 462.472 348.624 459.405 349.403C454.682 350.43 449.776 349.558 445.018 348.7C439.846 347.744 434.294 346.591 430.702 342.738C428.594 340.503 427.441 337.599 426.303 334.759C424.668 330.658 423.028 326.562 421.383 322.47C418.537 315.362 417.574 309.45 421.334 302.525C423.042 299.368 425.129 296.415 426.816 293.238C427.659 291.621 430.681 282.579 432.023 282.165Z" fill="#4C4981"/>
<path d="M727.395 403.699V424.72C712.979 430.711 697.514 433.77 681.903 433.719H492.366C492.267 433.817 492.162 433.909 492.056 434L489.779 433.719H152.626C124.339 433.719 98.1245 426.084 76.626 413.078V380.984L238.775 362.262H238.902L333.33 370.262L357.766 372.372L370.458 373.447L396.729 375.676L410.244 376.822L429.922 378.495L432.691 378.727L446.874 379.929L466.116 381.511L493.174 383.803L538.279 387.635L570.011 390.327L622.116 394.749L632.025 395.586L633.094 395.677L634.021 395.755L647.107 396.865L661.473 398.089L663.138 398.229L727.395 403.699Z" fill="#504F60"/>
<path d="M536.937 402.926L333.73 368.231L325.852 408.086L419.001 419.243L447.682 422.836L526.578 407.292L536.937 402.926Z" fill="#9C9CA1"/>
<path d="M431.749 420.839L533.557 401.695C534.066 401.598 534.591 401.614 535.093 401.743C535.595 401.873 536.062 402.112 536.461 402.443C536.86 402.774 537.181 403.19 537.401 403.66C537.62 404.13 537.733 404.643 537.731 405.161V405.161C537.733 405.984 537.447 406.782 536.922 407.415C536.396 408.049 535.666 408.478 534.857 408.627L435.432 427.251L431.749 420.839Z" fill="#9C9CA1"/>
<path d="M475.913 360.638C479.083 360.343 482.295 359.843 485.148 358.437C488.662 356.687 491.396 353.671 494.65 351.449C501.804 346.528 511.376 345.867 519.578 348.693C527.78 351.519 534.625 357.573 539.418 364.8C542.602 369.616 544.991 375.76 542.742 381.075C541.971 382.7 540.998 384.221 539.847 385.603L533.985 393.266C532.872 394.877 531.532 396.319 530.007 397.547C527.815 399.143 525.088 399.797 522.403 400.191C515.27 401.231 508.01 400.641 500.82 401.119C488.472 401.941 476.412 405.921 464.036 405.787C456.924 405.71 449.903 404.276 442.952 402.841L412.191 396.514C406.835 395.417 400.784 393.814 398.261 388.956C397.13 386.77 396.919 384.239 396.785 381.778C396.42 375.001 396.785 367.464 401.48 362.578C405.894 357.994 412.872 356.546 418.143 353.158C424.595 349.003 426.724 350.345 433.527 353.467C446.8 359.48 461.403 361.95 475.913 360.638V360.638Z" fill="#AE6E79"/>
<path opacity="0.05" d="M475.913 360.638C479.083 360.343 482.295 359.843 485.148 358.437C488.662 356.687 491.396 353.671 494.65 351.449C501.804 346.528 511.376 345.867 519.578 348.693C527.78 351.519 534.625 357.573 539.418 364.8C542.602 369.616 544.991 375.76 542.742 381.075C541.971 382.7 540.998 384.221 539.847 385.603L533.985 393.266C532.872 394.877 531.532 396.319 530.007 397.547C527.815 399.143 525.088 399.797 522.403 400.191C515.27 401.231 508.01 400.641 500.82 401.119C488.472 401.941 476.412 405.921 464.036 405.787C456.924 405.71 449.903 404.276 442.952 402.841L412.191 396.514C406.835 395.417 400.784 393.814 398.261 388.956C397.13 386.77 396.919 384.239 396.785 381.778C396.42 375.001 396.785 367.464 401.48 362.578C405.894 357.994 412.872 356.546 418.143 353.158C424.595 349.003 426.724 350.345 433.527 353.467C446.8 359.48 461.403 361.95 475.913 360.638V360.638Z" fill="black"/>
<path d="M599.444 350.999C590.814 354.339 582.134 357.692 573.096 359.682C557.944 363.021 542.089 362.494 527.056 366.311C519.114 368.336 511.222 371.598 503.062 370.937C499.415 370.642 495.894 369.531 492.345 368.688C472.406 363.766 449.741 365.362 433.549 378.017C428.011 382.341 423.478 387.733 419.366 393.484C418.486 394.726 417.892 396.147 417.625 397.646C417.358 399.145 417.425 400.684 417.822 402.153C418.219 403.623 418.935 404.987 419.92 406.147C420.905 407.308 422.134 408.236 423.52 408.866C429.817 411.763 436.562 413.563 443.465 414.188C452.693 415.004 461.963 413.696 471.141 412.389C484.761 410.455 498.389 408.515 511.974 406.342C516.851 405.562 521.729 404.754 526.634 404.135C561.936 399.671 597.877 405.098 633.269 401.372C636.847 400.992 640.487 400.5 643.741 398.975C651.978 395.108 656.054 384.914 654.353 375.957C652.653 367 646.089 359.555 638.189 354.985C631.569 351.14 624.428 349.586 617.056 347.955C610.211 346.359 606.036 348.468 599.444 350.999Z" fill="#AE6E79"/>
<path opacity="0.1" d="M675.156 297.456C679.05 302.56 679.879 309.407 679.457 315.798C679.036 322.189 677.518 328.509 677.293 334.928C676.983 343.73 679.106 352.504 678.748 361.278C678.495 367.415 677.04 373.433 675.318 379.325C673.287 386.278 670.349 393.751 663.933 397.09C655.415 401.527 637.549 399.031 628.589 402.504C629.404 397.421 637.219 390.06 638.034 384.977C638.597 381.462 639.166 377.848 638.562 374.326C637.788 369.834 635.153 365.847 632.026 362.529C627.05 357.249 620.556 353.277 613.422 351.983C606.289 350.69 588.825 351.751 583.118 356.258C582.415 351.604 595.487 347.118 600.083 346.113C602.374 345.6 605.003 345.888 606.837 344.433C610.351 341.677 607.8 336.186 607.969 331.778C608.102 328.263 610.154 325.043 610.569 321.528C611.272 315.904 607.603 310.174 609.044 304.655C609.578 302.616 610.766 300.823 611.588 298.883C614.09 292.942 612.994 286.165 611.658 279.852C610.829 275.887 610.021 271.415 612.228 268.034C614.273 264.877 620.078 276.119 623.796 275.598C636.074 273.876 647.185 264.771 657.101 272.224C662.154 276.02 662.815 279.957 664.832 285.378C666.793 290.538 671.874 293.181 675.156 297.456Z" fill="black"/>
<path d="M677.265 297.456C681.158 302.56 681.987 309.407 681.566 315.798C681.144 322.189 679.626 328.509 679.401 334.928C679.092 343.73 681.214 352.504 680.856 361.278C680.603 367.415 679.148 373.433 677.426 379.325C675.395 386.278 672.457 393.751 666.041 397.09C657.523 401.527 639.658 399.031 630.697 402.504C631.512 397.421 639.328 390.06 640.143 384.977C640.705 381.462 641.274 377.848 640.67 374.326C639.897 369.834 637.261 365.847 634.134 362.529C629.158 357.249 622.664 353.277 615.531 351.983C608.397 350.69 590.933 351.751 585.226 356.258C584.523 351.604 597.595 347.118 602.192 346.113C604.483 345.6 607.111 345.888 608.946 344.433C612.46 341.677 609.908 336.186 610.077 331.778C610.211 328.263 612.263 325.043 612.678 321.528C613.38 315.904 609.712 310.174 611.152 304.655C611.687 302.616 612.874 300.823 613.697 298.883C616.198 292.942 615.102 286.165 613.767 279.852C612.938 275.887 612.129 271.415 614.336 268.034C616.381 264.877 620.38 263.682 624.098 263.155C636.546 261.47 649.158 264.725 659.238 272.224C664.291 276.02 664.952 279.957 666.969 285.378C668.901 290.538 673.983 293.181 677.265 297.456Z" fill="#4C4981"/>
<path d="M212.245 264.146L250.456 405.414C250.925 407.145 251.91 408.692 253.279 409.849C254.649 411.006 256.339 411.718 258.123 411.889L430.112 428.418C431.514 428.553 432.927 428.35 434.234 427.827C435.542 427.303 436.705 426.473 437.625 425.408C438.546 424.342 439.198 423.071 439.527 421.701C439.856 420.331 439.852 418.903 439.515 417.535L397.671 247.132C397.173 245.107 395.973 243.324 394.285 242.099C392.597 240.875 390.529 240.29 388.45 240.446L220.067 253.045C218.774 253.145 217.519 253.53 216.392 254.171C215.265 254.813 214.293 255.695 213.546 256.755C212.799 257.815 212.295 259.028 212.07 260.305C211.845 261.583 211.905 262.894 212.245 264.146V264.146Z" fill="#9C9CA1"/>
<path d="M553.179 291.712C563.62 291.712 572.084 283.135 572.084 272.554C572.084 261.974 563.62 253.396 553.179 253.396C542.738 253.396 534.273 261.974 534.273 272.554C534.273 283.135 542.738 291.712 553.179 291.712Z" fill="white"/>
<path d="M568.703 237.606C568.703 237.606 572.688 249.459 560.931 254.444L559.427 257.073L566.792 264.343C566.792 264.343 575.872 247.772 574.888 241.888C574.888 241.888 573.483 235.912 568.703 237.606Z" fill="white"/>
<path d="M555.35 291.712C565.419 291.712 573.581 283.547 573.581 273.475C573.581 263.403 565.419 255.238 555.35 255.238C545.282 255.238 537.12 263.403 537.12 273.475C537.12 283.547 545.282 291.712 555.35 291.712Z" fill="#1EB980"/>
<path d="M574.979 244.58L572.084 239.8L567.867 239.202C568.767 223.461 564.683 218.772 564.683 218.772L563.735 218.68L559.602 218.28L551.829 210.209V207.917C562.751 209.217 568.788 214.406 572.049 220.487C577.812 231.159 574.979 244.58 574.979 244.58Z" fill="#1EB980"/>
<path opacity="0.1" d="M563.77 215.784V218.68L559.637 218.28L551.865 210.209C551.865 210.209 563.889 212.901 563.77 215.784Z" fill="black" stroke="#4C4981" stroke-miterlimit="10"/>
<path opacity="0.1" d="M574.979 244.58L572.084 239.8V220.515C577.812 231.159 574.979 244.58 574.979 244.58Z" fill="black" stroke="#4C4981" stroke-miterlimit="10"/>
<path d="M521.663 280.972C526.513 278.17 526.305 268.725 521.197 259.874C516.089 251.024 508.016 246.12 503.165 248.922C498.315 251.723 498.523 261.169 503.631 270.019C508.739 278.87 516.812 283.773 521.663 280.972Z" fill="white"/>
<path d="M515.15 263.401C520.26 272.252 526.529 278.164 521.679 280.977C516.83 283.789 502.704 282.383 497.595 273.524C492.485 264.666 497.124 252.433 501.973 249.621C506.822 246.809 510.034 254.528 515.15 263.401Z" fill="#1EB980"/>
<path opacity="0.1" d="M560.642 199.635C560.642 227.918 541.294 255.175 513.021 255.175C499.442 255.175 486.42 249.779 476.818 240.174C467.216 230.569 461.822 217.542 461.822 203.959C461.822 190.375 467.216 177.348 476.818 167.743C486.42 158.138 499.442 152.742 513.021 152.742C541.294 152.77 560.642 171.345 560.642 199.635Z" fill="black"/>
<path d="M513.021 253.797C541.297 253.797 564.22 230.867 564.22 202.581C564.22 174.295 541.297 151.364 513.021 151.364C484.745 151.364 461.822 174.295 461.822 202.581C461.822 230.867 484.745 253.797 513.021 253.797Z" fill="#AE6E79"/>
<path d="M508.523 179.887C514.616 182.129 518.222 188.429 523.689 191.937C531.42 196.858 541.484 195.585 550.311 193.153C555.231 191.81 560.375 190.172 565.218 191.663C565.93 191.978 566.716 192.09 567.488 191.986C568.542 191.684 569.062 190.517 569.406 189.476C575.394 171.619 572.702 151.392 563.664 134.871C561.331 130.611 558.534 126.491 554.683 123.531C551.647 121.204 548.076 119.678 544.478 118.378C537.902 116.015 531.101 114.335 524.181 113.365C522.959 113.143 521.711 113.103 520.478 113.246C518.784 113.52 517.266 114.434 515.755 115.249C509.283 118.719 502.107 120.669 494.769 120.951C484.93 121.323 473.685 119.003 466.102 125.317C456.966 132.888 459.243 147.659 453.318 157.938C449.397 164.736 441.835 169.671 440.591 177.412C440.267 179.778 440.417 182.184 441.033 184.492C443.929 196.401 455.455 205.625 467.74 205.843C469.626 205.987 471.515 205.6 473.193 204.725C474.293 203.974 475.263 203.051 476.068 201.99C484.115 192.457 493.321 174.29 508.523 179.887Z" fill="#444053"/>
<path opacity="0.1" d="M569.406 184.295C569.062 185.335 568.542 186.502 567.488 186.804C566.716 186.908 565.93 186.797 565.218 186.481C560.375 184.991 555.203 186.629 550.318 187.972C541.484 190.404 531.399 191.705 523.696 186.755C518.222 183.24 514.623 176.913 508.523 174.705C493.321 169.081 484.115 187.276 476.047 196.809C475.242 197.87 474.272 198.793 473.172 199.544C471.494 200.418 469.605 200.805 467.719 200.661C455.476 200.443 443.943 191.22 441.012 179.31C440.851 178.607 440.71 177.904 440.605 177.201C440.605 177.264 440.605 177.32 440.57 177.384C440.246 179.75 440.396 182.156 441.012 184.463C443.908 196.373 455.441 205.597 467.719 205.815C469.605 205.959 471.494 205.571 473.172 204.697C474.272 203.946 475.242 203.023 476.047 201.962C484.115 192.429 493.321 174.262 508.523 179.858C514.623 182.101 518.222 188.4 523.696 191.909C531.427 196.83 541.484 195.557 550.318 193.125C555.238 191.782 560.375 190.144 565.218 191.634C565.93 191.95 566.716 192.062 567.488 191.958C568.542 191.655 569.062 190.488 569.406 189.448C571.821 182.141 572.888 174.456 572.555 166.768C572.348 172.731 571.288 178.633 569.406 184.295V184.295Z" fill="black"/>
</g>
<defs>
<clipPath id="clip0">
<rect width="804" height="434" fill="white"/>
</clipPath>
</defs>
</svg>
