<svg width="150" height="117" viewBox="0 0 150 117" fill="none" xmlns="http://www.w3.org/2000/svg">
<mask id="mask0" mask-type="alpha" maskUnits="userSpaceOnUse" x="0" y="0" width="150" height="117">
<rect width="150" height="117" fill="#C4C4C4"/>
</mask>
<g mask="url(#mask0)">
<path d="M57.0938 25.3281L72 35.4531C63.2812 47.3594 58.7812 60.2031 58.5 73.9844V93.1094H32.625V76.7969C32.625 67.2344 34.875 57.7656 39.375 48.3906C43.9688 39.0156 49.875 31.3281 57.0938 25.3281ZM101.391 25.3281L116.297 35.4531C107.578 47.3594 103.078 60.2031 102.797 73.9844V93.1094H76.9219V76.7969C76.9219 67.2344 79.1719 57.7656 83.6719 48.3906C88.2656 39.0156 94.1719 31.3281 101.391 25.3281ZM36.8438 622.781L22.0781 612.656C30.8906 600.375 35.4844 587.719 35.8594 574.688V551.203H61.3125V571.594C61.3125 581.062 58.9688 590.531 54.2812 600C49.6875 609.469 43.875 617.062 36.8438 622.781Z" fill="black"/>
</g>
</svg>
